<svg width="107" height="33" viewBox="0 0 107 33" fill="none" xmlns="http://www.w3.org/2000/svg">
<path d="M42.7051 18.6017C42.7051 20.038 43.6738 21.1089 45.0931 21.1089C46.5702 21.1089 47.4912 19.9916 47.4912 18.6017C47.4912 17.2119 46.5702 16.0945 45.0931 16.0945C43.6738 16.0945 42.7051 17.1649 42.7051 18.6017ZM50.0615 18.6017C50.0615 21.3341 48.124 23.3908 45.5631 23.3908C44.2779 23.3908 43.3862 22.8833 42.782 22.1509V23.1559H40.3363V9.63379H42.8298V15.005C43.4341 14.2918 44.3068 13.8127 45.5535 13.8127C48.124 13.8127 50.0615 15.8693 50.0615 18.6017Z" fill="white"/>
<path d="M54.0922 18.602C54.0922 19.9919 55.0224 21.1092 56.49 21.1092C57.9192 21.1092 58.8878 20.0383 58.8878 18.602C58.8878 17.1652 57.9192 16.0948 56.49 16.0948C55.0224 16.0948 54.0922 17.2122 54.0922 18.602ZM61.2567 23.1562H58.8109V22.1512C58.2068 22.8836 57.3055 23.3911 56.0295 23.3911C53.4687 23.3911 51.5314 21.3344 51.5314 18.602C51.5314 15.8696 53.4687 13.813 56.0295 13.813C57.3055 13.813 58.1972 14.3198 58.8109 15.0622V14.0572H61.2567V23.1562Z" fill="white"/>
<path d="M70.6294 16.2357H67.2629V19.5599C67.2629 20.6962 67.8766 21.1091 68.6533 21.1091C69.2482 21.1091 69.8909 20.8182 70.399 20.5173L71.32 22.433C70.5048 22.9778 69.5648 23.391 68.2412 23.391C65.9393 23.391 64.7596 22.1138 64.7596 19.7568V16.2357H62.9663V14.0571H64.7596V11.353H67.2629V14.0571H70.6294V16.2357Z" fill="white"/>
<path d="M80.8163 15.5314L79.0131 17.0056C78.4474 16.4138 77.843 16.0948 77.0278 16.0948C75.7331 16.0948 74.6971 17.0902 74.6971 18.602C74.6971 20.1229 75.7236 21.1092 77.0182 21.1092C77.8239 21.1092 78.5145 20.7523 79.042 20.1889L80.8258 21.6817C79.9531 22.7803 78.6489 23.3911 77.0951 23.3911C74.1314 23.3911 72.1461 21.3627 72.1461 18.602C72.1461 15.8509 74.1314 13.813 77.0951 13.813C78.6489 13.813 79.9627 14.4327 80.8163 15.5314Z" fill="white"/>
<path d="M85.1342 15.0335C85.7962 14.1319 86.7839 13.8129 87.8005 13.8129C89.9111 13.8129 91.4165 15.2498 91.4165 17.3624V23.1558H88.9128V18.1511C88.9128 16.8362 88.242 16.1135 87.1004 16.1135C86.0263 16.1135 85.1342 16.7989 85.1342 18.1698V23.1558H82.6312V9.625H85.1342V15.0335Z" fill="white"/>
<path d="M95.9549 18.602C95.9549 19.9919 96.8854 21.1092 98.3526 21.1092C99.7819 21.1092 100.75 20.0383 100.75 18.602C100.75 17.1652 99.7819 16.0948 98.3526 16.0948C96.8854 16.0948 95.9549 17.2122 95.9549 18.602ZM103.119 23.1562H100.673V22.1512C100.07 22.8836 99.168 23.3911 97.892 23.3911C95.3317 23.3911 93.3945 21.3344 93.3945 18.602C93.3945 15.8696 95.3317 13.813 97.892 13.813C99.168 13.813 100.06 14.3198 100.673 15.0622V14.0572H103.119V23.1562Z" fill="white"/>
<path d="M2.68141 2.62522C1.04063e-05 5.25044 0 9.26979 0 16.4999C0 23.7302 1.04063e-05 27.7495 2.68141 30.3748C5.3628 33 9.46812 33 16.8531 33C24.2381 33 28.3435 33 31.0249 30.3748C33.7063 27.7495 33.7063 23.7302 33.7063 16.4999C33.7063 9.26979 33.7063 5.25044 31.0249 2.62522C28.3435 3.49681e-06 24.2381 0 16.8531 0C9.46812 0 5.3628 3.49681e-06 2.68141 2.62522Z" fill="url(#paint0_linear_49_5570)"/>
<path d="M25.7416 16.9166C26.5764 15.8826 26.9943 14.6983 26.9943 13.3637C26.9943 11.6459 26.2274 10.2112 24.6933 9.0602C23.278 8.00925 21.6587 7.48389 19.8349 7.48389H6.53882V18.1732L11.901 12.9262V22.1119H21.2884L15.7817 27.5002H21.1135C22.9201 27.5002 24.531 26.9834 25.9461 25.9489C27.4969 24.8149 28.2729 23.3886 28.2729 21.6705C28.2729 19.6188 27.429 18.0344 25.7416 16.9166Z" fill="white"/>
<defs>
<linearGradient id="paint0_linear_49_5570" x1="33.2399" y1="49.794" x2="3.39417" y2="-13.4685" gradientUnits="userSpaceOnUse">
<stop offset="0.185162" stop-color="#FC3E70"/>
<stop offset="0.928157" stop-color="#705DF2"/>
</linearGradient>
</defs>
</svg>
